<svg width="20" height="23" viewBox="0 0 20 23" fill="none" xmlns="http://www.w3.org/2000/svg">
<path d="M19.7408 11.8725L10.7418 0.364178C10.3628 -0.121474 9.63491 -0.121474 9.25595 0.364178L0.256955 11.8725C0.127426 12.0378 0.0424037 12.2428 0.0122267 12.4626C-0.0179503 12.6825 0.00801785 12.9077 0.086974 13.1108C0.246956 13.5263 0.604916 13.7933 0.999872 13.7933H2.99965V21.8491C2.99965 22.1543 3.10499 22.447 3.29251 22.6629C3.48002 22.8787 3.73435 22.9999 3.99954 22.9999H6.9992C7.26439 22.9999 7.51871 22.8787 7.70623 22.6629C7.89374 22.447 7.99909 22.1543 7.99909 21.8491V17.2458H11.9986V21.8491C11.9986 22.1543 12.104 22.447 12.2915 22.6629C12.479 22.8787 12.7333 22.9999 12.9985 22.9999H15.9982C16.2634 22.9999 16.5177 22.8787 16.7052 22.6629C16.8927 22.447 16.9981 22.1543 16.9981 21.8491V13.7933H18.9979C19.1915 13.7942 19.3812 13.7303 19.5438 13.6093C19.7065 13.4883 19.835 13.3155 19.9137 13.1118C19.9925 12.9082 20.0181 12.6826 19.9874 12.4626C19.9567 12.2425 19.871 12.0375 19.7408 11.8725Z" fill="#FF772B"/>
</svg>
