<svg width="20" height="23" viewBox="0 0 20 23" fill="none" xmlns="http://www.w3.org/2000/svg">
<path d="M19.6326 18.0164L15.0689 13.2446C14.8532 13.0191 14.5697 12.8989 14.2783 12.9092C13.9869 12.9196 13.7105 13.0598 13.5073 13.3001L10.8207 16.4775C10.174 16.3354 8.87396 15.8694 7.53573 14.3343C6.1975 12.794 5.79221 11.2951 5.67209 10.5566L8.43275 7.4658C8.64203 7.23228 8.76409 6.91428 8.7731 6.5791C8.78211 6.24392 8.67737 5.91786 8.48103 5.66992L4.33273 0.423012C4.13631 0.174296 3.86332 0.0234317 3.57173 0.00245886C3.28014 -0.018514 2.99292 0.0920573 2.77109 0.310689L0.334875 2.71337C0.140776 2.93739 0.0249252 3.23554 0.00929798 3.55127C-0.00754219 3.87404 -0.328628 11.5198 4.82671 17.4509C9.32416 22.6217 14.9578 22.9999 16.5093 22.9999C16.7361 22.9999 16.8753 22.9922 16.9123 22.9896C17.1868 22.9719 17.446 22.8381 17.6398 22.6139L19.728 19.811C19.9189 19.5567 20.0157 19.2267 19.9979 18.8914C19.9801 18.5561 19.849 18.2421 19.6326 18.0164Z" fill="#FF772B"/>
</svg>
