<svg width="24" height="24" viewBox="0 0 24 24" fill="none" xmlns="http://www.w3.org/2000/svg">
<path d="M23.6306 11.0695L21.067 8.50331L19.2845 6.71896L12.9416 0.369732C12.8248 0.252526 12.6859 0.159541 12.5331 0.0960984C12.3803 0.0326556 12.2164 0 12.051 0C11.8856 0 11.7217 0.0326556 11.5689 0.0960984C11.4161 0.159541 11.2772 0.252526 11.1604 0.369732L4.66382 6.87155L2.88127 8.65463C2.52955 9.00547 2.25072 9.42256 2.06088 9.88184C1.87104 10.3411 1.77395 10.8335 1.77521 11.3305C1.77521 12.3418 2.16951 13.2927 2.88253 14.0051L3.77317 14.8967L1.09998 17.5726C0.748096 17.9193 0.469415 18.3333 0.280492 18.7899C0.0915682 19.2465 -0.00374426 19.7365 0.000215932 20.2308C-0.00573303 20.7849 0.111307 21.3334 0.342887 21.8367C0.574466 22.34 0.914806 22.7856 1.33933 23.1412C2.0052 23.6992 2.84682 24.0034 3.71522 24C4.76586 24 5.79885 23.57 6.54966 22.8184L9.1183 20.2472L10.0089 21.1375C11.4362 22.5662 13.923 22.5675 15.3528 21.1387L16.2447 20.2472L16.9615 19.5297L17.1354 19.3556L23.6306 12.8526C23.7477 12.7356 23.8406 12.5966 23.904 12.4436C23.9674 12.2906 24 12.1266 24 11.961C24 11.7954 23.9674 11.6314 23.904 11.4784C23.8406 11.3255 23.7477 11.1865 23.6306 11.0695ZM14.4634 18.4654L13.5715 19.3556C13.332 19.5858 13.0129 19.7143 12.6809 19.7143C12.3489 19.7143 12.0298 19.5858 11.7902 19.3556L10.0089 17.5738C9.89205 17.4566 9.75322 17.3636 9.6004 17.3002C9.44757 17.2367 9.28375 17.2041 9.1183 17.2041C8.95285 17.2041 8.78903 17.2367 8.6362 17.3002C8.48337 17.3636 8.34454 17.4566 8.22765 17.5738L4.76838 21.0353C4.48948 21.3164 4.11099 21.4759 3.71522 21.4792C3.44221 21.4835 3.17655 21.3905 2.96567 21.2169C2.82153 21.0971 2.70649 20.9461 2.62923 20.7753C2.55197 20.6044 2.51452 20.4182 2.51972 20.2308C2.51811 20.0684 2.54931 19.9075 2.61145 19.7575C2.67358 19.6075 2.76536 19.4717 2.88127 19.3582L6.44511 15.7907C6.56219 15.6737 6.65509 15.5348 6.71846 15.3818C6.78184 15.2288 6.81447 15.0648 6.81447 14.8992C6.81447 14.7336 6.78184 14.5696 6.71846 14.4166C6.65509 14.2636 6.56219 14.1247 6.44511 14.0077L4.66382 12.2233C4.42572 11.9862 4.29471 11.671 4.29471 11.333C4.29471 10.9951 4.42572 10.6786 4.66382 10.4402L5.55446 9.54869L10.0089 14.0077L14.4634 18.4654Z" fill="black"/>
</svg>
